<?xml version="1.0" encoding="utf-8" standalone="no"?>
<!DOCTYPE svg PUBLIC "-//W3C//DTD SVG 1.1//EN"
  "http://www.w3.org/Graphics/SVG/1.1/DTD/svg11.dtd">
<svg xmlns:xlink="http://www.w3.org/1999/xlink" width="720pt" height="576pt" viewBox="0 0 720 576" xmlns="http://www.w3.org/2000/svg" version="1.1">
 <metadata>
  <rdf:RDF xmlns:dc="http://purl.org/dc/elements/1.1/" xmlns:cc="http://creativecommons.org/ns#" xmlns:rdf="http://www.w3.org/1999/02/22-rdf-syntax-ns#">
   <cc:Work>
    <dc:type rdf:resource="http://purl.org/dc/dcmitype/StillImage"/>
    <dc:date>2024-04-27T12:44:13.782323</dc:date>
    <dc:format>image/svg+xml</dc:format>
    <dc:creator>
     <cc:Agent>
      <dc:title>Matplotlib v3.5.2, https://matplotlib.org/</dc:title>
     </cc:Agent>
    </dc:creator>
   </cc:Work>
  </rdf:RDF>
 </metadata>
 <defs>
  <style type="text/css">*{stroke-linejoin: round; stroke-linecap: butt}</style>
 </defs>
 <g id="figure_1">
  <g id="patch_1">
   <path d="M 0 576 
L 720 576 
L 720 0 
L 0 0 
z
" style="fill: #ffffff"/>
  </g>
  <g id="axes_1">
   <g id="patch_2">
    <path d="M 64.91 487.679159 
L 709.2 487.679159 
L 709.2 32.64 
L 64.91 32.64 
L 64.91 487.679159 
z
" style="fill: none"/>
   </g>
   <g id="patch_3">
    <path d="M 77.300192 487.679159 
L 93.185054 487.679159 
L 93.185054 287.589838 
L 77.300192 287.589838 
z
" clip-path="url(#p5492c60702)" style="fill: #1f77b4"/>
   </g>
   <g id="patch_4">
    <path d="M 156.724502 487.679159 
L 172.609364 487.679159 
L 172.609364 444.118647 
L 156.724502 444.118647 
z
" clip-path="url(#p5492c60702)" style="fill: #1f77b4"/>
   </g>
   <g id="patch_5">
    <path d="M 236.148812 487.679159 
L 252.033674 487.679159 
L 252.033674 470.971824 
L 236.148812 470.971824 
z
" clip-path="url(#p5492c60702)" style="fill: #1f77b4"/>
   </g>
   <g id="patch_6">
    <path d="M 315.573121 487.679159 
L 331.457983 487.679159 
L 331.457983 341.754674 
L 315.573121 341.754674 
z
" clip-path="url(#p5492c60702)" style="fill: #1f77b4"/>
   </g>
   <g id="patch_7">
    <path d="M 394.997431 487.679159 
L 410.882293 487.679159 
L 410.882293 206.465184 
L 394.997431 206.465184 
z
" clip-path="url(#p5492c60702)" style="fill: #1f77b4"/>
   </g>
   <g id="patch_8">
    <path d="M 474.421741 487.679159 
L 490.306603 487.679159 
L 490.306603 479.58512 
L 474.421741 479.58512 
z
" clip-path="url(#p5492c60702)" style="fill: #1f77b4"/>
   </g>
   <g id="patch_9">
    <path d="M 553.84605 487.679159 
L 569.730912 487.679159 
L 569.730912 298.855499 
L 553.84605 298.855499 
z
" clip-path="url(#p5492c60702)" style="fill: #1f77b4"/>
   </g>
   <g id="patch_10">
    <path d="M 633.27036 487.679159 
L 649.155222 487.679159 
L 649.155222 472.679951 
L 633.27036 472.679951 
z
" clip-path="url(#p5492c60702)" style="fill: #1f77b4"/>
   </g>
   <g id="patch_11">
    <path d="M 93.185054 487.679159 
L 109.069916 487.679159 
L 109.069916 231.63143 
L 93.185054 231.63143 
z
" clip-path="url(#p5492c60702)" style="fill: #ff7f0e"/>
   </g>
   <g id="patch_12">
    <path d="M 172.609364 487.679159 
L 188.494226 487.679159 
L 188.494226 474.661005 
L 172.609364 474.661005 
z
" clip-path="url(#p5492c60702)" style="fill: #ff7f0e"/>
   </g>
   <g id="patch_13">
    <path d="M 252.033674 487.679159 
L 267.918536 487.679159 
L 267.918536 485.535194 
L 252.033674 485.535194 
z
" clip-path="url(#p5492c60702)" style="fill: #ff7f0e"/>
   </g>
   <g id="patch_14">
    <path d="M 331.457983 487.679159 
L 347.342845 487.679159 
L 347.342845 445.310742 
L 331.457983 445.310742 
z
" clip-path="url(#p5492c60702)" style="fill: #ff7f0e"/>
   </g>
   <g id="patch_15">
    <path d="M 410.882293 487.679159 
L 426.767155 487.679159 
L 426.767155 408.73402 
L 410.882293 408.73402 
z
" clip-path="url(#p5492c60702)" style="fill: #ff7f0e"/>
   </g>
   <g id="patch_16">
    <path d="M 490.306603 487.679159 
L 506.191464 487.679159 
L 506.191464 485.340835 
L 490.306603 485.340835 
z
" clip-path="url(#p5492c60702)" style="fill: #ff7f0e"/>
   </g>
   <g id="patch_17">
    <path d="M 569.730912 487.679159 
L 585.615774 487.679159 
L 585.615774 446.226077 
L 569.730912 446.226077 
z
" clip-path="url(#p5492c60702)" style="fill: #ff7f0e"/>
   </g>
   <g id="patch_18">
    <path d="M 649.155222 487.679159 
L 665.040084 487.679159 
L 665.040084 483.767559 
L 649.155222 483.767559 
z
" clip-path="url(#p5492c60702)" style="fill: #ff7f0e"/>
   </g>
   <g id="patch_19">
    <path d="M 109.069916 487.679159 
L 124.954778 487.679159 
L 124.954778 275.5426 
L 109.069916 275.5426 
z
" clip-path="url(#p5492c60702)" style="fill: #2ca02c"/>
   </g>
   <g id="patch_20">
    <path d="M 188.494226 487.679159 
L 204.379088 487.679159 
L 204.379088 439.22133 
L 188.494226 439.22133 
z
" clip-path="url(#p5492c60702)" style="fill: #2ca02c"/>
   </g>
   <g id="patch_21">
    <path d="M 267.918536 487.679159 
L 283.803397 487.679159 
L 283.803397 475.072467 
L 267.918536 475.072467 
z
" clip-path="url(#p5492c60702)" style="fill: #2ca02c"/>
   </g>
   <g id="patch_22">
    <path d="M 347.342845 487.679159 
L 363.227707 487.679159 
L 363.227707 359.533489 
L 347.342845 359.533489 
z
" clip-path="url(#p5492c60702)" style="fill: #2ca02c"/>
   </g>
   <g id="patch_23">
    <path d="M 426.767155 487.679159 
L 442.652017 487.679159 
L 442.652017 232.650735 
L 426.767155 232.650735 
z
" clip-path="url(#p5492c60702)" style="fill: #2ca02c"/>
   </g>
   <g id="patch_24">
    <path d="M 506.191464 487.679159 
L 522.076326 487.679159 
L 522.076326 479.776479 
L 506.191464 479.776479 
z
" clip-path="url(#p5492c60702)" style="fill: #2ca02c"/>
   </g>
   <g id="patch_25">
    <path d="M 585.615774 487.679159 
L 601.500636 487.679159 
L 601.500636 322.084081 
L 585.615774 322.084081 
z
" clip-path="url(#p5492c60702)" style="fill: #2ca02c"/>
   </g>
   <g id="patch_26">
    <path d="M 665.040084 487.679159 
L 680.924946 487.679159 
L 680.924946 473.341715 
L 665.040084 473.341715 
z
" clip-path="url(#p5492c60702)" style="fill: #2ca02c"/>
   </g>
   <g id="patch_27">
    <path d="M 124.954778 487.679159 
L 140.83964 487.679159 
L 140.83964 220.125681 
L 124.954778 220.125681 
z
" clip-path="url(#p5492c60702)" style="fill: #d62728"/>
   </g>
   <g id="patch_28">
    <path d="M 204.379088 487.679159 
L 220.26395 487.679159 
L 220.26395 392.822487 
L 204.379088 392.822487 
z
" clip-path="url(#p5492c60702)" style="fill: #d62728"/>
   </g>
   <g id="patch_29">
    <path d="M 283.803397 487.679159 
L 299.688259 487.679159 
L 299.688259 460.766329 
L 283.803397 460.766329 
z
" clip-path="url(#p5492c60702)" style="fill: #d62728"/>
   </g>
   <g id="patch_30">
    <path d="M 363.227707 487.679159 
L 379.112569 487.679159 
L 379.112569 289.04951 
L 363.227707 289.04951 
z
" clip-path="url(#p5492c60702)" style="fill: #d62728"/>
   </g>
   <g id="patch_31">
    <path d="M 442.652017 487.679159 
L 458.536879 487.679159 
L 458.536879 82.7398 
L 442.652017 82.7398 
z
" clip-path="url(#p5492c60702)" style="fill: #d62728"/>
   </g>
   <g id="patch_32">
    <path d="M 522.076326 487.679159 
L 537.961188 487.679159 
L 537.961188 469.150003 
L 522.076326 469.150003 
z
" clip-path="url(#p5492c60702)" style="fill: #d62728"/>
   </g>
   <g id="patch_33">
    <path d="M 601.500636 487.679159 
L 617.385498 487.679159 
L 617.385498 259.320907 
L 601.500636 259.320907 
z
" clip-path="url(#p5492c60702)" style="fill: #d62728"/>
   </g>
   <g id="patch_34">
    <path d="M 680.924946 487.679159 
L 696.809808 487.679159 
L 696.809808 456.976011 
L 680.924946 456.976011 
z
" clip-path="url(#p5492c60702)" style="fill: #d62728"/>
   </g>
   <g id="matplotlib.axis_1">
    <g id="xtick_1">
     <g id="line2d_1">
      <defs>
       <path id="mcdc778b64e" d="M 0 0 
L 0 3.5 
" style="stroke: #000000; stroke-width: 0.8"/>
      </defs>
      <g>
       <use xlink:href="#mcdc778b64e" x="109.069916" y="487.679159" style="stroke: #000000; stroke-width: 0.8"/>
      </g>
     </g>
     <g id="text_1">
      <!-- GlcCer(26:1) -->
      <g transform="translate(88.5594 544.975444)rotate(-45)scale(0.1 -0.1)">
       <defs>
        <path id="DejaVuSans-47" d="M 3809 666 
L 3809 1919 
L 2778 1919 
L 2778 2438 
L 4434 2438 
L 4434 434 
Q 4069 175 3628 42 
Q 3188 -91 2688 -91 
Q 1594 -91 976 548 
Q 359 1188 359 2328 
Q 359 3472 976 4111 
Q 1594 4750 2688 4750 
Q 3144 4750 3555 4637 
Q 3966 4525 4313 4306 
L 4313 3634 
Q 3963 3931 3569 4081 
Q 3175 4231 2741 4231 
Q 1884 4231 1454 3753 
Q 1025 3275 1025 2328 
Q 1025 1384 1454 906 
Q 1884 428 2741 428 
Q 3075 428 3337 486 
Q 3600 544 3809 666 
z
" transform="scale(0.015625)"/>
        <path id="DejaVuSans-6c" d="M 603 4863 
L 1178 4863 
L 1178 0 
L 603 0 
L 603 4863 
z
" transform="scale(0.015625)"/>
        <path id="DejaVuSans-63" d="M 3122 3366 
L 3122 2828 
Q 2878 2963 2633 3030 
Q 2388 3097 2138 3097 
Q 1578 3097 1268 2742 
Q 959 2388 959 1747 
Q 959 1106 1268 751 
Q 1578 397 2138 397 
Q 2388 397 2633 464 
Q 2878 531 3122 666 
L 3122 134 
Q 2881 22 2623 -34 
Q 2366 -91 2075 -91 
Q 1284 -91 818 406 
Q 353 903 353 1747 
Q 353 2603 823 3093 
Q 1294 3584 2113 3584 
Q 2378 3584 2631 3529 
Q 2884 3475 3122 3366 
z
" transform="scale(0.015625)"/>
        <path id="DejaVuSans-43" d="M 4122 4306 
L 4122 3641 
Q 3803 3938 3442 4084 
Q 3081 4231 2675 4231 
Q 1875 4231 1450 3742 
Q 1025 3253 1025 2328 
Q 1025 1406 1450 917 
Q 1875 428 2675 428 
Q 3081 428 3442 575 
Q 3803 722 4122 1019 
L 4122 359 
Q 3791 134 3420 21 
Q 3050 -91 2638 -91 
Q 1578 -91 968 557 
Q 359 1206 359 2328 
Q 359 3453 968 4101 
Q 1578 4750 2638 4750 
Q 3056 4750 3426 4639 
Q 3797 4528 4122 4306 
z
" transform="scale(0.015625)"/>
        <path id="DejaVuSans-65" d="M 3597 1894 
L 3597 1613 
L 953 1613 
Q 991 1019 1311 708 
Q 1631 397 2203 397 
Q 2534 397 2845 478 
Q 3156 559 3463 722 
L 3463 178 
Q 3153 47 2828 -22 
Q 2503 -91 2169 -91 
Q 1331 -91 842 396 
Q 353 884 353 1716 
Q 353 2575 817 3079 
Q 1281 3584 2069 3584 
Q 2775 3584 3186 3129 
Q 3597 2675 3597 1894 
z
M 3022 2063 
Q 3016 2534 2758 2815 
Q 2500 3097 2075 3097 
Q 1594 3097 1305 2825 
Q 1016 2553 972 2059 
L 3022 2063 
z
" transform="scale(0.015625)"/>
        <path id="DejaVuSans-72" d="M 2631 2963 
Q 2534 3019 2420 3045 
Q 2306 3072 2169 3072 
Q 1681 3072 1420 2755 
Q 1159 2438 1159 1844 
L 1159 0 
L 581 0 
L 581 3500 
L 1159 3500 
L 1159 2956 
Q 1341 3275 1631 3429 
Q 1922 3584 2338 3584 
Q 2397 3584 2469 3576 
Q 2541 3569 2628 3553 
L 2631 2963 
z
" transform="scale(0.015625)"/>
        <path id="DejaVuSans-28" d="M 1984 4856 
Q 1566 4138 1362 3434 
Q 1159 2731 1159 2009 
Q 1159 1288 1364 580 
Q 1569 -128 1984 -844 
L 1484 -844 
Q 1016 -109 783 600 
Q 550 1309 550 2009 
Q 550 2706 781 3412 
Q 1013 4119 1484 4856 
L 1984 4856 
z
" transform="scale(0.015625)"/>
        <path id="DejaVuSans-32" d="M 1228 531 
L 3431 531 
L 3431 0 
L 469 0 
L 469 531 
Q 828 903 1448 1529 
Q 2069 2156 2228 2338 
Q 2531 2678 2651 2914 
Q 2772 3150 2772 3378 
Q 2772 3750 2511 3984 
Q 2250 4219 1831 4219 
Q 1534 4219 1204 4116 
Q 875 4013 500 3803 
L 500 4441 
Q 881 4594 1212 4672 
Q 1544 4750 1819 4750 
Q 2544 4750 2975 4387 
Q 3406 4025 3406 3419 
Q 3406 3131 3298 2873 
Q 3191 2616 2906 2266 
Q 2828 2175 2409 1742 
Q 1991 1309 1228 531 
z
" transform="scale(0.015625)"/>
        <path id="DejaVuSans-36" d="M 2113 2584 
Q 1688 2584 1439 2293 
Q 1191 2003 1191 1497 
Q 1191 994 1439 701 
Q 1688 409 2113 409 
Q 2538 409 2786 701 
Q 3034 994 3034 1497 
Q 3034 2003 2786 2293 
Q 2538 2584 2113 2584 
z
M 3366 4563 
L 3366 3988 
Q 3128 4100 2886 4159 
Q 2644 4219 2406 4219 
Q 1781 4219 1451 3797 
Q 1122 3375 1075 2522 
Q 1259 2794 1537 2939 
Q 1816 3084 2150 3084 
Q 2853 3084 3261 2657 
Q 3669 2231 3669 1497 
Q 3669 778 3244 343 
Q 2819 -91 2113 -91 
Q 1303 -91 875 529 
Q 447 1150 447 2328 
Q 447 3434 972 4092 
Q 1497 4750 2381 4750 
Q 2619 4750 2861 4703 
Q 3103 4656 3366 4563 
z
" transform="scale(0.015625)"/>
        <path id="DejaVuSans-3a" d="M 750 794 
L 1409 794 
L 1409 0 
L 750 0 
L 750 794 
z
M 750 3309 
L 1409 3309 
L 1409 2516 
L 750 2516 
L 750 3309 
z
" transform="scale(0.015625)"/>
        <path id="DejaVuSans-31" d="M 794 531 
L 1825 531 
L 1825 4091 
L 703 3866 
L 703 4441 
L 1819 4666 
L 2450 4666 
L 2450 531 
L 3481 531 
L 3481 0 
L 794 0 
L 794 531 
z
" transform="scale(0.015625)"/>
        <path id="DejaVuSans-29" d="M 513 4856 
L 1013 4856 
Q 1481 4119 1714 3412 
Q 1947 2706 1947 2009 
Q 1947 1309 1714 600 
Q 1481 -109 1013 -844 
L 513 -844 
Q 928 -128 1133 580 
Q 1338 1288 1338 2009 
Q 1338 2731 1133 3434 
Q 928 4138 513 4856 
z
" transform="scale(0.015625)"/>
       </defs>
       <use xlink:href="#DejaVuSans-47"/>
       <use xlink:href="#DejaVuSans-6c" x="77.490234"/>
       <use xlink:href="#DejaVuSans-63" x="105.273438"/>
       <use xlink:href="#DejaVuSans-43" x="160.253906"/>
       <use xlink:href="#DejaVuSans-65" x="230.078125"/>
       <use xlink:href="#DejaVuSans-72" x="291.601562"/>
       <use xlink:href="#DejaVuSans-28" x="332.714844"/>
       <use xlink:href="#DejaVuSans-32" x="371.728516"/>
       <use xlink:href="#DejaVuSans-36" x="435.351562"/>
       <use xlink:href="#DejaVuSans-3a" x="498.974609"/>
       <use xlink:href="#DejaVuSans-31" x="532.666016"/>
       <use xlink:href="#DejaVuSans-29" x="596.289062"/>
      </g>
     </g>
    </g>
    <g id="xtick_2">
     <g id="line2d_2">
      <g>
       <use xlink:href="#mcdc778b64e" x="188.494226" y="487.679159" style="stroke: #000000; stroke-width: 0.8"/>
      </g>
     </g>
     <g id="text_2">
      <!-- GlcCer(34:1) -->
      <g transform="translate(167.98371 544.975444)rotate(-45)scale(0.1 -0.1)">
       <defs>
        <path id="DejaVuSans-33" d="M 2597 2516 
Q 3050 2419 3304 2112 
Q 3559 1806 3559 1356 
Q 3559 666 3084 287 
Q 2609 -91 1734 -91 
Q 1441 -91 1130 -33 
Q 819 25 488 141 
L 488 750 
Q 750 597 1062 519 
Q 1375 441 1716 441 
Q 2309 441 2620 675 
Q 2931 909 2931 1356 
Q 2931 1769 2642 2001 
Q 2353 2234 1838 2234 
L 1294 2234 
L 1294 2753 
L 1863 2753 
Q 2328 2753 2575 2939 
Q 2822 3125 2822 3475 
Q 2822 3834 2567 4026 
Q 2313 4219 1838 4219 
Q 1578 4219 1281 4162 
Q 984 4106 628 3988 
L 628 4550 
Q 988 4650 1302 4700 
Q 1616 4750 1894 4750 
Q 2613 4750 3031 4423 
Q 3450 4097 3450 3541 
Q 3450 3153 3228 2886 
Q 3006 2619 2597 2516 
z
" transform="scale(0.015625)"/>
        <path id="DejaVuSans-34" d="M 2419 4116 
L 825 1625 
L 2419 1625 
L 2419 4116 
z
M 2253 4666 
L 3047 4666 
L 3047 1625 
L 3713 1625 
L 3713 1100 
L 3047 1100 
L 3047 0 
L 2419 0 
L 2419 1100 
L 313 1100 
L 313 1709 
L 2253 4666 
z
" transform="scale(0.015625)"/>
       </defs>
       <use xlink:href="#DejaVuSans-47"/>
       <use xlink:href="#DejaVuSans-6c" x="77.490234"/>
       <use xlink:href="#DejaVuSans-63" x="105.273438"/>
       <use xlink:href="#DejaVuSans-43" x="160.253906"/>
       <use xlink:href="#DejaVuSans-65" x="230.078125"/>
       <use xlink:href="#DejaVuSans-72" x="291.601562"/>
       <use xlink:href="#DejaVuSans-28" x="332.714844"/>
       <use xlink:href="#DejaVuSans-33" x="371.728516"/>
       <use xlink:href="#DejaVuSans-34" x="435.351562"/>
       <use xlink:href="#DejaVuSans-3a" x="498.974609"/>
       <use xlink:href="#DejaVuSans-31" x="532.666016"/>
       <use xlink:href="#DejaVuSans-29" x="596.289062"/>
      </g>
     </g>
    </g>
    <g id="xtick_3">
     <g id="line2d_3">
      <g>
       <use xlink:href="#mcdc778b64e" x="267.918536" y="487.679159" style="stroke: #000000; stroke-width: 0.8"/>
      </g>
     </g>
     <g id="text_3">
      <!-- GlcCer(36:1) -->
      <g transform="translate(247.408019 544.975444)rotate(-45)scale(0.1 -0.1)">
       <use xlink:href="#DejaVuSans-47"/>
       <use xlink:href="#DejaVuSans-6c" x="77.490234"/>
       <use xlink:href="#DejaVuSans-63" x="105.273438"/>
       <use xlink:href="#DejaVuSans-43" x="160.253906"/>
       <use xlink:href="#DejaVuSans-65" x="230.078125"/>
       <use xlink:href="#DejaVuSans-72" x="291.601562"/>
       <use xlink:href="#DejaVuSans-28" x="332.714844"/>
       <use xlink:href="#DejaVuSans-33" x="371.728516"/>
       <use xlink:href="#DejaVuSans-36" x="435.351562"/>
       <use xlink:href="#DejaVuSans-3a" x="498.974609"/>
       <use xlink:href="#DejaVuSans-31" x="532.666016"/>
       <use xlink:href="#DejaVuSans-29" x="596.289062"/>
      </g>
     </g>
    </g>
    <g id="xtick_4">
     <g id="line2d_4">
      <g>
       <use xlink:href="#mcdc778b64e" x="347.342845" y="487.679159" style="stroke: #000000; stroke-width: 0.8"/>
      </g>
     </g>
     <g id="text_4">
      <!-- GlcCer(38:1) -->
      <g transform="translate(326.832329 544.975444)rotate(-45)scale(0.1 -0.1)">
       <defs>
        <path id="DejaVuSans-38" d="M 2034 2216 
Q 1584 2216 1326 1975 
Q 1069 1734 1069 1313 
Q 1069 891 1326 650 
Q 1584 409 2034 409 
Q 2484 409 2743 651 
Q 3003 894 3003 1313 
Q 3003 1734 2745 1975 
Q 2488 2216 2034 2216 
z
M 1403 2484 
Q 997 2584 770 2862 
Q 544 3141 544 3541 
Q 544 4100 942 4425 
Q 1341 4750 2034 4750 
Q 2731 4750 3128 4425 
Q 3525 4100 3525 3541 
Q 3525 3141 3298 2862 
Q 3072 2584 2669 2484 
Q 3125 2378 3379 2068 
Q 3634 1759 3634 1313 
Q 3634 634 3220 271 
Q 2806 -91 2034 -91 
Q 1263 -91 848 271 
Q 434 634 434 1313 
Q 434 1759 690 2068 
Q 947 2378 1403 2484 
z
M 1172 3481 
Q 1172 3119 1398 2916 
Q 1625 2713 2034 2713 
Q 2441 2713 2670 2916 
Q 2900 3119 2900 3481 
Q 2900 3844 2670 4047 
Q 2441 4250 2034 4250 
Q 1625 4250 1398 4047 
Q 1172 3844 1172 3481 
z
" transform="scale(0.015625)"/>
       </defs>
       <use xlink:href="#DejaVuSans-47"/>
       <use xlink:href="#DejaVuSans-6c" x="77.490234"/>
       <use xlink:href="#DejaVuSans-63" x="105.273438"/>
       <use xlink:href="#DejaVuSans-43" x="160.253906"/>
       <use xlink:href="#DejaVuSans-65" x="230.078125"/>
       <use xlink:href="#DejaVuSans-72" x="291.601562"/>
       <use xlink:href="#DejaVuSans-28" x="332.714844"/>
       <use xlink:href="#DejaVuSans-33" x="371.728516"/>
       <use xlink:href="#DejaVuSans-38" x="435.351562"/>
       <use xlink:href="#DejaVuSans-3a" x="498.974609"/>
       <use xlink:href="#DejaVuSans-31" x="532.666016"/>
       <use xlink:href="#DejaVuSans-29" x="596.289062"/>
      </g>
     </g>
    </g>
    <g id="xtick_5">
     <g id="line2d_5">
      <g>
       <use xlink:href="#mcdc778b64e" x="426.767155" y="487.679159" style="stroke: #000000; stroke-width: 0.8"/>
      </g>
     </g>
     <g id="text_5">
      <!-- GlcCer(40:1) -->
      <g transform="translate(406.256639 544.975444)rotate(-45)scale(0.1 -0.1)">
       <defs>
        <path id="DejaVuSans-30" d="M 2034 4250 
Q 1547 4250 1301 3770 
Q 1056 3291 1056 2328 
Q 1056 1369 1301 889 
Q 1547 409 2034 409 
Q 2525 409 2770 889 
Q 3016 1369 3016 2328 
Q 3016 3291 2770 3770 
Q 2525 4250 2034 4250 
z
M 2034 4750 
Q 2819 4750 3233 4129 
Q 3647 3509 3647 2328 
Q 3647 1150 3233 529 
Q 2819 -91 2034 -91 
Q 1250 -91 836 529 
Q 422 1150 422 2328 
Q 422 3509 836 4129 
Q 1250 4750 2034 4750 
z
" transform="scale(0.015625)"/>
       </defs>
       <use xlink:href="#DejaVuSans-47"/>
       <use xlink:href="#DejaVuSans-6c" x="77.490234"/>
       <use xlink:href="#DejaVuSans-63" x="105.273438"/>
       <use xlink:href="#DejaVuSans-43" x="160.253906"/>
       <use xlink:href="#DejaVuSans-65" x="230.078125"/>
       <use xlink:href="#DejaVuSans-72" x="291.601562"/>
       <use xlink:href="#DejaVuSans-28" x="332.714844"/>
       <use xlink:href="#DejaVuSans-34" x="371.728516"/>
       <use xlink:href="#DejaVuSans-30" x="435.351562"/>
       <use xlink:href="#DejaVuSans-3a" x="498.974609"/>
       <use xlink:href="#DejaVuSans-31" x="532.666016"/>
       <use xlink:href="#DejaVuSans-29" x="596.289062"/>
      </g>
     </g>
    </g>
    <g id="xtick_6">
     <g id="line2d_6">
      <g>
       <use xlink:href="#mcdc778b64e" x="506.191464" y="487.679159" style="stroke: #000000; stroke-width: 0.8"/>
      </g>
     </g>
     <g id="text_6">
      <!-- GlcCer(40:2) -->
      <g transform="translate(485.680948 544.975444)rotate(-45)scale(0.1 -0.1)">
       <use xlink:href="#DejaVuSans-47"/>
       <use xlink:href="#DejaVuSans-6c" x="77.490234"/>
       <use xlink:href="#DejaVuSans-63" x="105.273438"/>
       <use xlink:href="#DejaVuSans-43" x="160.253906"/>
       <use xlink:href="#DejaVuSans-65" x="230.078125"/>
       <use xlink:href="#DejaVuSans-72" x="291.601562"/>
       <use xlink:href="#DejaVuSans-28" x="332.714844"/>
       <use xlink:href="#DejaVuSans-34" x="371.728516"/>
       <use xlink:href="#DejaVuSans-30" x="435.351562"/>
       <use xlink:href="#DejaVuSans-3a" x="498.974609"/>
       <use xlink:href="#DejaVuSans-32" x="532.666016"/>
       <use xlink:href="#DejaVuSans-29" x="596.289062"/>
      </g>
     </g>
    </g>
    <g id="xtick_7">
     <g id="line2d_7">
      <g>
       <use xlink:href="#mcdc778b64e" x="585.615774" y="487.679159" style="stroke: #000000; stroke-width: 0.8"/>
      </g>
     </g>
     <g id="text_7">
      <!-- GlcCer(42:1) -->
      <g transform="translate(565.105258 544.975444)rotate(-45)scale(0.1 -0.1)">
       <use xlink:href="#DejaVuSans-47"/>
       <use xlink:href="#DejaVuSans-6c" x="77.490234"/>
       <use xlink:href="#DejaVuSans-63" x="105.273438"/>
       <use xlink:href="#DejaVuSans-43" x="160.253906"/>
       <use xlink:href="#DejaVuSans-65" x="230.078125"/>
       <use xlink:href="#DejaVuSans-72" x="291.601562"/>
       <use xlink:href="#DejaVuSans-28" x="332.714844"/>
       <use xlink:href="#DejaVuSans-34" x="371.728516"/>
       <use xlink:href="#DejaVuSans-32" x="435.351562"/>
       <use xlink:href="#DejaVuSans-3a" x="498.974609"/>
       <use xlink:href="#DejaVuSans-31" x="532.666016"/>
       <use xlink:href="#DejaVuSans-29" x="596.289062"/>
      </g>
     </g>
    </g>
    <g id="xtick_8">
     <g id="line2d_8">
      <g>
       <use xlink:href="#mcdc778b64e" x="665.040084" y="487.679159" style="stroke: #000000; stroke-width: 0.8"/>
      </g>
     </g>
     <g id="text_8">
      <!-- GlcCer(42:2) -->
      <g transform="translate(644.529568 544.975444)rotate(-45)scale(0.1 -0.1)">
       <use xlink:href="#DejaVuSans-47"/>
       <use xlink:href="#DejaVuSans-6c" x="77.490234"/>
       <use xlink:href="#DejaVuSans-63" x="105.273438"/>
       <use xlink:href="#DejaVuSans-43" x="160.253906"/>
       <use xlink:href="#DejaVuSans-65" x="230.078125"/>
       <use xlink:href="#DejaVuSans-72" x="291.601562"/>
       <use xlink:href="#DejaVuSans-28" x="332.714844"/>
       <use xlink:href="#DejaVuSans-34" x="371.728516"/>
       <use xlink:href="#DejaVuSans-32" x="435.351562"/>
       <use xlink:href="#DejaVuSans-3a" x="498.974609"/>
       <use xlink:href="#DejaVuSans-32" x="532.666016"/>
       <use xlink:href="#DejaVuSans-29" x="596.289062"/>
      </g>
     </g>
    </g>
    <g id="text_9">
     <!-- Lipid Type -->
     <g transform="translate(349.578438 561.843661)scale(0.15 -0.15)">
      <defs>
       <path id="DejaVuSans-4c" d="M 628 4666 
L 1259 4666 
L 1259 531 
L 3531 531 
L 3531 0 
L 628 0 
L 628 4666 
z
" transform="scale(0.015625)"/>
       <path id="DejaVuSans-69" d="M 603 3500 
L 1178 3500 
L 1178 0 
L 603 0 
L 603 3500 
z
M 603 4863 
L 1178 4863 
L 1178 4134 
L 603 4134 
L 603 4863 
z
" transform="scale(0.015625)"/>
       <path id="DejaVuSans-70" d="M 1159 525 
L 1159 -1331 
L 581 -1331 
L 581 3500 
L 1159 3500 
L 1159 2969 
Q 1341 3281 1617 3432 
Q 1894 3584 2278 3584 
Q 2916 3584 3314 3078 
Q 3713 2572 3713 1747 
Q 3713 922 3314 415 
Q 2916 -91 2278 -91 
Q 1894 -91 1617 61 
Q 1341 213 1159 525 
z
M 3116 1747 
Q 3116 2381 2855 2742 
Q 2594 3103 2138 3103 
Q 1681 3103 1420 2742 
Q 1159 2381 1159 1747 
Q 1159 1113 1420 752 
Q 1681 391 2138 391 
Q 2594 391 2855 752 
Q 3116 1113 3116 1747 
z
" transform="scale(0.015625)"/>
       <path id="DejaVuSans-64" d="M 2906 2969 
L 2906 4863 
L 3481 4863 
L 3481 0 
L 2906 0 
L 2906 525 
Q 2725 213 2448 61 
Q 2172 -91 1784 -91 
Q 1150 -91 751 415 
Q 353 922 353 1747 
Q 353 2572 751 3078 
Q 1150 3584 1784 3584 
Q 2172 3584 2448 3432 
Q 2725 3281 2906 2969 
z
M 947 1747 
Q 947 1113 1208 752 
Q 1469 391 1925 391 
Q 2381 391 2643 752 
Q 2906 1113 2906 1747 
Q 2906 2381 2643 2742 
Q 2381 3103 1925 3103 
Q 1469 3103 1208 2742 
Q 947 2381 947 1747 
z
" transform="scale(0.015625)"/>
       <path id="DejaVuSans-20" transform="scale(0.015625)"/>
       <path id="DejaVuSans-54" d="M -19 4666 
L 3928 4666 
L 3928 4134 
L 2272 4134 
L 2272 0 
L 1638 0 
L 1638 4134 
L -19 4134 
L -19 4666 
z
" transform="scale(0.015625)"/>
       <path id="DejaVuSans-79" d="M 2059 -325 
Q 1816 -950 1584 -1140 
Q 1353 -1331 966 -1331 
L 506 -1331 
L 506 -850 
L 844 -850 
Q 1081 -850 1212 -737 
Q 1344 -625 1503 -206 
L 1606 56 
L 191 3500 
L 800 3500 
L 1894 763 
L 2988 3500 
L 3597 3500 
L 2059 -325 
z
" transform="scale(0.015625)"/>
      </defs>
      <use xlink:href="#DejaVuSans-4c"/>
      <use xlink:href="#DejaVuSans-69" x="55.712891"/>
      <use xlink:href="#DejaVuSans-70" x="83.496094"/>
      <use xlink:href="#DejaVuSans-69" x="146.972656"/>
      <use xlink:href="#DejaVuSans-64" x="174.755859"/>
      <use xlink:href="#DejaVuSans-20" x="238.232422"/>
      <use xlink:href="#DejaVuSans-54" x="270.019531"/>
      <use xlink:href="#DejaVuSans-79" x="315.478516"/>
      <use xlink:href="#DejaVuSans-70" x="374.658203"/>
      <use xlink:href="#DejaVuSans-65" x="438.134766"/>
     </g>
    </g>
   </g>
   <g id="matplotlib.axis_2">
    <g id="ytick_1">
     <g id="line2d_9">
      <path d="M 64.91 487.679159 
L 709.2 487.679159 
" clip-path="url(#p5492c60702)" style="fill: none; stroke-dasharray: 1.85,0.8; stroke-dashoffset: 0; stroke: #000000; stroke-width: 0.5"/>
     </g>
     <g id="line2d_10">
      <defs>
       <path id="mbe7a0128bb" d="M 0 0 
L -3.5 0 
" style="stroke: #000000; stroke-width: 0.8"/>
      </defs>
      <g>
       <use xlink:href="#mbe7a0128bb" x="64.91" y="487.679159" style="stroke: #000000; stroke-width: 0.8"/>
      </g>
     </g>
     <g id="text_10">
      <!-- 0.000 -->
      <g transform="translate(29.281875 491.478378)scale(0.1 -0.1)">
       <defs>
        <path id="DejaVuSans-2e" d="M 684 794 
L 1344 794 
L 1344 0 
L 684 0 
L 684 794 
z
" transform="scale(0.015625)"/>
       </defs>
       <use xlink:href="#DejaVuSans-30"/>
       <use xlink:href="#DejaVuSans-2e" x="63.623047"/>
       <use xlink:href="#DejaVuSans-30" x="95.410156"/>
       <use xlink:href="#DejaVuSans-30" x="159.033203"/>
       <use xlink:href="#DejaVuSans-30" x="222.65625"/>
      </g>
     </g>
    </g>
    <g id="ytick_2">
     <g id="line2d_11">
      <path d="M 64.91 411.760793 
L 709.2 411.760793 
" clip-path="url(#p5492c60702)" style="fill: none; stroke-dasharray: 1.85,0.8; stroke-dashoffset: 0; stroke: #000000; stroke-width: 0.5"/>
     </g>
     <g id="line2d_12">
      <g>
       <use xlink:href="#mbe7a0128bb" x="64.91" y="411.760793" style="stroke: #000000; stroke-width: 0.8"/>
      </g>
     </g>
     <g id="text_11">
      <!-- 0.001 -->
      <g transform="translate(29.281875 415.560012)scale(0.1 -0.1)">
       <use xlink:href="#DejaVuSans-30"/>
       <use xlink:href="#DejaVuSans-2e" x="63.623047"/>
       <use xlink:href="#DejaVuSans-30" x="95.410156"/>
       <use xlink:href="#DejaVuSans-30" x="159.033203"/>
       <use xlink:href="#DejaVuSans-31" x="222.65625"/>
      </g>
     </g>
    </g>
    <g id="ytick_3">
     <g id="line2d_13">
      <path d="M 64.91 335.842427 
L 709.2 335.842427 
" clip-path="url(#p5492c60702)" style="fill: none; stroke-dasharray: 1.85,0.8; stroke-dashoffset: 0; stroke: #000000; stroke-width: 0.5"/>
     </g>
     <g id="line2d_14">
      <g>
       <use xlink:href="#mbe7a0128bb" x="64.91" y="335.842427" style="stroke: #000000; stroke-width: 0.8"/>
      </g>
     </g>
     <g id="text_12">
      <!-- 0.002 -->
      <g transform="translate(29.281875 339.641645)scale(0.1 -0.1)">
       <use xlink:href="#DejaVuSans-30"/>
       <use xlink:href="#DejaVuSans-2e" x="63.623047"/>
       <use xlink:href="#DejaVuSans-30" x="95.410156"/>
       <use xlink:href="#DejaVuSans-30" x="159.033203"/>
       <use xlink:href="#DejaVuSans-32" x="222.65625"/>
      </g>
     </g>
    </g>
    <g id="ytick_4">
     <g id="line2d_15">
      <path d="M 64.91 259.92406 
L 709.2 259.92406 
" clip-path="url(#p5492c60702)" style="fill: none; stroke-dasharray: 1.85,0.8; stroke-dashoffset: 0; stroke: #000000; stroke-width: 0.5"/>
     </g>
     <g id="line2d_16">
      <g>
       <use xlink:href="#mbe7a0128bb" x="64.91" y="259.92406" style="stroke: #000000; stroke-width: 0.8"/>
      </g>
     </g>
     <g id="text_13">
      <!-- 0.003 -->
      <g transform="translate(29.281875 263.723279)scale(0.1 -0.1)">
       <use xlink:href="#DejaVuSans-30"/>
       <use xlink:href="#DejaVuSans-2e" x="63.623047"/>
       <use xlink:href="#DejaVuSans-30" x="95.410156"/>
       <use xlink:href="#DejaVuSans-30" x="159.033203"/>
       <use xlink:href="#DejaVuSans-33" x="222.65625"/>
      </g>
     </g>
    </g>
    <g id="ytick_5">
     <g id="line2d_17">
      <path d="M 64.91 184.005694 
L 709.2 184.005694 
" clip-path="url(#p5492c60702)" style="fill: none; stroke-dasharray: 1.85,0.8; stroke-dashoffset: 0; stroke: #000000; stroke-width: 0.5"/>
     </g>
     <g id="line2d_18">
      <g>
       <use xlink:href="#mbe7a0128bb" x="64.91" y="184.005694" style="stroke: #000000; stroke-width: 0.8"/>
      </g>
     </g>
     <g id="text_14">
      <!-- 0.004 -->
      <g transform="translate(29.281875 187.804913)scale(0.1 -0.1)">
       <use xlink:href="#DejaVuSans-30"/>
       <use xlink:href="#DejaVuSans-2e" x="63.623047"/>
       <use xlink:href="#DejaVuSans-30" x="95.410156"/>
       <use xlink:href="#DejaVuSans-30" x="159.033203"/>
       <use xlink:href="#DejaVuSans-34" x="222.65625"/>
      </g>
     </g>
    </g>
    <g id="ytick_6">
     <g id="line2d_19">
      <path d="M 64.91 108.087328 
L 709.2 108.087328 
" clip-path="url(#p5492c60702)" style="fill: none; stroke-dasharray: 1.85,0.8; stroke-dashoffset: 0; stroke: #000000; stroke-width: 0.5"/>
     </g>
     <g id="line2d_20">
      <g>
       <use xlink:href="#mbe7a0128bb" x="64.91" y="108.087328" style="stroke: #000000; stroke-width: 0.8"/>
      </g>
     </g>
     <g id="text_15">
      <!-- 0.005 -->
      <g transform="translate(29.281875 111.886547)scale(0.1 -0.1)">
       <defs>
        <path id="DejaVuSans-35" d="M 691 4666 
L 3169 4666 
L 3169 4134 
L 1269 4134 
L 1269 2991 
Q 1406 3038 1543 3061 
Q 1681 3084 1819 3084 
Q 2600 3084 3056 2656 
Q 3513 2228 3513 1497 
Q 3513 744 3044 326 
Q 2575 -91 1722 -91 
Q 1428 -91 1123 -41 
Q 819 9 494 109 
L 494 744 
Q 775 591 1075 516 
Q 1375 441 1709 441 
Q 2250 441 2565 725 
Q 2881 1009 2881 1497 
Q 2881 1984 2565 2268 
Q 2250 2553 1709 2553 
Q 1456 2553 1204 2497 
Q 953 2441 691 2322 
L 691 4666 
z
" transform="scale(0.015625)"/>
       </defs>
       <use xlink:href="#DejaVuSans-30"/>
       <use xlink:href="#DejaVuSans-2e" x="63.623047"/>
       <use xlink:href="#DejaVuSans-30" x="95.410156"/>
       <use xlink:href="#DejaVuSans-30" x="159.033203"/>
       <use xlink:href="#DejaVuSans-35" x="222.65625"/>
      </g>
     </g>
    </g>
    <g id="text_16">
     <!-- Relative Concentration -->
     <g transform="translate(22.162344 345.845908)rotate(-90)scale(0.15 -0.15)">
      <defs>
       <path id="DejaVuSans-52" d="M 2841 2188 
Q 3044 2119 3236 1894 
Q 3428 1669 3622 1275 
L 4263 0 
L 3584 0 
L 2988 1197 
Q 2756 1666 2539 1819 
Q 2322 1972 1947 1972 
L 1259 1972 
L 1259 0 
L 628 0 
L 628 4666 
L 2053 4666 
Q 2853 4666 3247 4331 
Q 3641 3997 3641 3322 
Q 3641 2881 3436 2590 
Q 3231 2300 2841 2188 
z
M 1259 4147 
L 1259 2491 
L 2053 2491 
Q 2509 2491 2742 2702 
Q 2975 2913 2975 3322 
Q 2975 3731 2742 3939 
Q 2509 4147 2053 4147 
L 1259 4147 
z
" transform="scale(0.015625)"/>
       <path id="DejaVuSans-61" d="M 2194 1759 
Q 1497 1759 1228 1600 
Q 959 1441 959 1056 
Q 959 750 1161 570 
Q 1363 391 1709 391 
Q 2188 391 2477 730 
Q 2766 1069 2766 1631 
L 2766 1759 
L 2194 1759 
z
M 3341 1997 
L 3341 0 
L 2766 0 
L 2766 531 
Q 2569 213 2275 61 
Q 1981 -91 1556 -91 
Q 1019 -91 701 211 
Q 384 513 384 1019 
Q 384 1609 779 1909 
Q 1175 2209 1959 2209 
L 2766 2209 
L 2766 2266 
Q 2766 2663 2505 2880 
Q 2244 3097 1772 3097 
Q 1472 3097 1187 3025 
Q 903 2953 641 2809 
L 641 3341 
Q 956 3463 1253 3523 
Q 1550 3584 1831 3584 
Q 2591 3584 2966 3190 
Q 3341 2797 3341 1997 
z
" transform="scale(0.015625)"/>
       <path id="DejaVuSans-74" d="M 1172 4494 
L 1172 3500 
L 2356 3500 
L 2356 3053 
L 1172 3053 
L 1172 1153 
Q 1172 725 1289 603 
Q 1406 481 1766 481 
L 2356 481 
L 2356 0 
L 1766 0 
Q 1100 0 847 248 
Q 594 497 594 1153 
L 594 3053 
L 172 3053 
L 172 3500 
L 594 3500 
L 594 4494 
L 1172 4494 
z
" transform="scale(0.015625)"/>
       <path id="DejaVuSans-76" d="M 191 3500 
L 800 3500 
L 1894 563 
L 2988 3500 
L 3597 3500 
L 2284 0 
L 1503 0 
L 191 3500 
z
" transform="scale(0.015625)"/>
       <path id="DejaVuSans-6f" d="M 1959 3097 
Q 1497 3097 1228 2736 
Q 959 2375 959 1747 
Q 959 1119 1226 758 
Q 1494 397 1959 397 
Q 2419 397 2687 759 
Q 2956 1122 2956 1747 
Q 2956 2369 2687 2733 
Q 2419 3097 1959 3097 
z
M 1959 3584 
Q 2709 3584 3137 3096 
Q 3566 2609 3566 1747 
Q 3566 888 3137 398 
Q 2709 -91 1959 -91 
Q 1206 -91 779 398 
Q 353 888 353 1747 
Q 353 2609 779 3096 
Q 1206 3584 1959 3584 
z
" transform="scale(0.015625)"/>
       <path id="DejaVuSans-6e" d="M 3513 2113 
L 3513 0 
L 2938 0 
L 2938 2094 
Q 2938 2591 2744 2837 
Q 2550 3084 2163 3084 
Q 1697 3084 1428 2787 
Q 1159 2491 1159 1978 
L 1159 0 
L 581 0 
L 581 3500 
L 1159 3500 
L 1159 2956 
Q 1366 3272 1645 3428 
Q 1925 3584 2291 3584 
Q 2894 3584 3203 3211 
Q 3513 2838 3513 2113 
z
" transform="scale(0.015625)"/>
      </defs>
      <use xlink:href="#DejaVuSans-52"/>
      <use xlink:href="#DejaVuSans-65" x="64.982422"/>
      <use xlink:href="#DejaVuSans-6c" x="126.505859"/>
      <use xlink:href="#DejaVuSans-61" x="154.289062"/>
      <use xlink:href="#DejaVuSans-74" x="215.568359"/>
      <use xlink:href="#DejaVuSans-69" x="254.777344"/>
      <use xlink:href="#DejaVuSans-76" x="282.560547"/>
      <use xlink:href="#DejaVuSans-65" x="341.740234"/>
      <use xlink:href="#DejaVuSans-20" x="403.263672"/>
      <use xlink:href="#DejaVuSans-43" x="435.050781"/>
      <use xlink:href="#DejaVuSans-6f" x="504.875"/>
      <use xlink:href="#DejaVuSans-6e" x="566.056641"/>
      <use xlink:href="#DejaVuSans-63" x="629.435547"/>
      <use xlink:href="#DejaVuSans-65" x="684.416016"/>
      <use xlink:href="#DejaVuSans-6e" x="745.939453"/>
      <use xlink:href="#DejaVuSans-74" x="809.318359"/>
      <use xlink:href="#DejaVuSans-72" x="848.527344"/>
      <use xlink:href="#DejaVuSans-61" x="889.640625"/>
      <use xlink:href="#DejaVuSans-74" x="950.919922"/>
      <use xlink:href="#DejaVuSans-69" x="990.128906"/>
      <use xlink:href="#DejaVuSans-6f" x="1017.912109"/>
      <use xlink:href="#DejaVuSans-6e" x="1079.09375"/>
     </g>
    </g>
   </g>
   <g id="LineCollection_1">
    <path d="M 85.242623 331.51047 
L 85.242623 243.669205 
" clip-path="url(#p5492c60702)" style="fill: none; stroke: #000000; stroke-width: 1.5"/>
    <path d="M 164.666933 455.744668 
L 164.666933 432.492627 
" clip-path="url(#p5492c60702)" style="fill: none; stroke: #000000; stroke-width: 1.5"/>
    <path d="M 244.091243 474.371779 
L 244.091243 467.571869 
" clip-path="url(#p5492c60702)" style="fill: none; stroke: #000000; stroke-width: 1.5"/>
    <path d="M 323.515552 370.723584 
L 323.515552 312.785764 
" clip-path="url(#p5492c60702)" style="fill: none; stroke: #000000; stroke-width: 1.5"/>
    <path d="M 402.939862 262.000922 
L 402.939862 150.929445 
" clip-path="url(#p5492c60702)" style="fill: none; stroke: #000000; stroke-width: 1.5"/>
    <path d="M 482.364172 481.271628 
L 482.364172 477.898612 
" clip-path="url(#p5492c60702)" style="fill: none; stroke: #000000; stroke-width: 1.5"/>
    <path d="M 561.788481 346.902393 
L 561.788481 250.808606 
" clip-path="url(#p5492c60702)" style="fill: none; stroke: #000000; stroke-width: 1.5"/>
    <path d="M 641.212791 477.938677 
L 641.212791 467.421224 
" clip-path="url(#p5492c60702)" style="fill: none; stroke: #000000; stroke-width: 1.5"/>
   </g>
   <g id="line2d_21">
    <defs>
     <path id="mff69f2d43f" d="M 5 0 
L -5 -0 
" style="stroke: #000000"/>
    </defs>
    <g clip-path="url(#p5492c60702)">
     <use xlink:href="#mff69f2d43f" x="85.242623" y="331.51047" style="stroke: #000000"/>
     <use xlink:href="#mff69f2d43f" x="164.666933" y="455.744668" style="stroke: #000000"/>
     <use xlink:href="#mff69f2d43f" x="244.091243" y="474.371779" style="stroke: #000000"/>
     <use xlink:href="#mff69f2d43f" x="323.515552" y="370.723584" style="stroke: #000000"/>
     <use xlink:href="#mff69f2d43f" x="402.939862" y="262.000922" style="stroke: #000000"/>
     <use xlink:href="#mff69f2d43f" x="482.364172" y="481.271628" style="stroke: #000000"/>
     <use xlink:href="#mff69f2d43f" x="561.788481" y="346.902393" style="stroke: #000000"/>
     <use xlink:href="#mff69f2d43f" x="641.212791" y="477.938677" style="stroke: #000000"/>
    </g>
   </g>
   <g id="line2d_22">
    <g clip-path="url(#p5492c60702)">
     <use xlink:href="#mff69f2d43f" x="85.242623" y="243.669205" style="stroke: #000000"/>
     <use xlink:href="#mff69f2d43f" x="164.666933" y="432.492627" style="stroke: #000000"/>
     <use xlink:href="#mff69f2d43f" x="244.091243" y="467.571869" style="stroke: #000000"/>
     <use xlink:href="#mff69f2d43f" x="323.515552" y="312.785764" style="stroke: #000000"/>
     <use xlink:href="#mff69f2d43f" x="402.939862" y="150.929445" style="stroke: #000000"/>
     <use xlink:href="#mff69f2d43f" x="482.364172" y="477.898612" style="stroke: #000000"/>
     <use xlink:href="#mff69f2d43f" x="561.788481" y="250.808606" style="stroke: #000000"/>
     <use xlink:href="#mff69f2d43f" x="641.212791" y="467.421224" style="stroke: #000000"/>
    </g>
   </g>
   <g id="LineCollection_2">
    <path d="M 101.127485 245.599739 
L 101.127485 217.663121 
" clip-path="url(#p5492c60702)" style="fill: none; stroke: #000000; stroke-width: 1.5"/>
    <path d="M 180.551795 475.86366 
L 180.551795 473.45835 
" clip-path="url(#p5492c60702)" style="fill: none; stroke: #000000; stroke-width: 1.5"/>
    <path d="M 259.976105 485.66099 
L 259.976105 485.409397 
" clip-path="url(#p5492c60702)" style="fill: none; stroke: #000000; stroke-width: 1.5"/>
    <path d="M 339.400414 446.170635 
L 339.400414 444.45085 
" clip-path="url(#p5492c60702)" style="fill: none; stroke: #000000; stroke-width: 1.5"/>
    <path d="M 418.824724 411.807538 
L 418.824724 405.660502 
" clip-path="url(#p5492c60702)" style="fill: none; stroke: #000000; stroke-width: 1.5"/>
    <path d="M 498.249034 486.033442 
L 498.249034 484.648229 
" clip-path="url(#p5492c60702)" style="fill: none; stroke: #000000; stroke-width: 1.5"/>
    <path d="M 577.673343 446.617813 
L 577.673343 445.834341 
" clip-path="url(#p5492c60702)" style="fill: none; stroke: #000000; stroke-width: 1.5"/>
    <path d="M 657.097653 483.823978 
L 657.097653 483.711139 
" clip-path="url(#p5492c60702)" style="fill: none; stroke: #000000; stroke-width: 1.5"/>
   </g>
   <g id="line2d_23">
    <g clip-path="url(#p5492c60702)">
     <use xlink:href="#mff69f2d43f" x="101.127485" y="245.599739" style="stroke: #000000"/>
     <use xlink:href="#mff69f2d43f" x="180.551795" y="475.86366" style="stroke: #000000"/>
     <use xlink:href="#mff69f2d43f" x="259.976105" y="485.66099" style="stroke: #000000"/>
     <use xlink:href="#mff69f2d43f" x="339.400414" y="446.170635" style="stroke: #000000"/>
     <use xlink:href="#mff69f2d43f" x="418.824724" y="411.807538" style="stroke: #000000"/>
     <use xlink:href="#mff69f2d43f" x="498.249034" y="486.033442" style="stroke: #000000"/>
     <use xlink:href="#mff69f2d43f" x="577.673343" y="446.617813" style="stroke: #000000"/>
     <use xlink:href="#mff69f2d43f" x="657.097653" y="483.823978" style="stroke: #000000"/>
    </g>
   </g>
   <g id="line2d_24">
    <g clip-path="url(#p5492c60702)">
     <use xlink:href="#mff69f2d43f" x="101.127485" y="217.663121" style="stroke: #000000"/>
     <use xlink:href="#mff69f2d43f" x="180.551795" y="473.45835" style="stroke: #000000"/>
     <use xlink:href="#mff69f2d43f" x="259.976105" y="485.409397" style="stroke: #000000"/>
     <use xlink:href="#mff69f2d43f" x="339.400414" y="444.45085" style="stroke: #000000"/>
     <use xlink:href="#mff69f2d43f" x="418.824724" y="405.660502" style="stroke: #000000"/>
     <use xlink:href="#mff69f2d43f" x="498.249034" y="484.648229" style="stroke: #000000"/>
     <use xlink:href="#mff69f2d43f" x="577.673343" y="445.834341" style="stroke: #000000"/>
     <use xlink:href="#mff69f2d43f" x="657.097653" y="483.711139" style="stroke: #000000"/>
    </g>
   </g>
   <g id="LineCollection_3">
    <path d="M 117.012347 292.817675 
L 117.012347 258.267526 
" clip-path="url(#p5492c60702)" style="fill: none; stroke: #000000; stroke-width: 1.5"/>
    <path d="M 196.436657 453.904397 
L 196.436657 424.538262 
" clip-path="url(#p5492c60702)" style="fill: none; stroke: #000000; stroke-width: 1.5"/>
    <path d="M 275.860966 479.455011 
L 275.860966 470.689924 
" clip-path="url(#p5492c60702)" style="fill: none; stroke: #000000; stroke-width: 1.5"/>
    <path d="M 355.285276 400.311112 
L 355.285276 318.755866 
" clip-path="url(#p5492c60702)" style="fill: none; stroke: #000000; stroke-width: 1.5"/>
    <path d="M 434.709586 310.427008 
L 434.709586 154.874461 
" clip-path="url(#p5492c60702)" style="fill: none; stroke: #000000; stroke-width: 1.5"/>
    <path d="M 514.133895 482.282831 
L 514.133895 477.270127 
" clip-path="url(#p5492c60702)" style="fill: none; stroke: #000000; stroke-width: 1.5"/>
    <path d="M 593.558205 373.087777 
L 593.558205 271.080386 
" clip-path="url(#p5492c60702)" style="fill: none; stroke: #000000; stroke-width: 1.5"/>
    <path d="M 672.982515 476.35055 
L 672.982515 470.33288 
" clip-path="url(#p5492c60702)" style="fill: none; stroke: #000000; stroke-width: 1.5"/>
   </g>
   <g id="line2d_25">
    <g clip-path="url(#p5492c60702)">
     <use xlink:href="#mff69f2d43f" x="117.012347" y="292.817675" style="stroke: #000000"/>
     <use xlink:href="#mff69f2d43f" x="196.436657" y="453.904397" style="stroke: #000000"/>
     <use xlink:href="#mff69f2d43f" x="275.860966" y="479.455011" style="stroke: #000000"/>
     <use xlink:href="#mff69f2d43f" x="355.285276" y="400.311112" style="stroke: #000000"/>
     <use xlink:href="#mff69f2d43f" x="434.709586" y="310.427008" style="stroke: #000000"/>
     <use xlink:href="#mff69f2d43f" x="514.133895" y="482.282831" style="stroke: #000000"/>
     <use xlink:href="#mff69f2d43f" x="593.558205" y="373.087777" style="stroke: #000000"/>
     <use xlink:href="#mff69f2d43f" x="672.982515" y="476.35055" style="stroke: #000000"/>
    </g>
   </g>
   <g id="line2d_26">
    <g clip-path="url(#p5492c60702)">
     <use xlink:href="#mff69f2d43f" x="117.012347" y="258.267526" style="stroke: #000000"/>
     <use xlink:href="#mff69f2d43f" x="196.436657" y="424.538262" style="stroke: #000000"/>
     <use xlink:href="#mff69f2d43f" x="275.860966" y="470.689924" style="stroke: #000000"/>
     <use xlink:href="#mff69f2d43f" x="355.285276" y="318.755866" style="stroke: #000000"/>
     <use xlink:href="#mff69f2d43f" x="434.709586" y="154.874461" style="stroke: #000000"/>
     <use xlink:href="#mff69f2d43f" x="514.133895" y="477.270127" style="stroke: #000000"/>
     <use xlink:href="#mff69f2d43f" x="593.558205" y="271.080386" style="stroke: #000000"/>
     <use xlink:href="#mff69f2d43f" x="672.982515" y="470.33288" style="stroke: #000000"/>
    </g>
   </g>
   <g id="LineCollection_4">
    <path d="M 132.897209 243.772292 
L 132.897209 196.47907 
" clip-path="url(#p5492c60702)" style="fill: none; stroke: #000000; stroke-width: 1.5"/>
    <path d="M 212.321519 401.099658 
L 212.321519 384.545316 
" clip-path="url(#p5492c60702)" style="fill: none; stroke: #000000; stroke-width: 1.5"/>
    <path d="M 291.745828 464.082949 
L 291.745828 457.44971 
" clip-path="url(#p5492c60702)" style="fill: none; stroke: #000000; stroke-width: 1.5"/>
    <path d="M 371.170138 309.549874 
L 371.170138 268.549145 
" clip-path="url(#p5492c60702)" style="fill: none; stroke: #000000; stroke-width: 1.5"/>
    <path d="M 450.594448 111.171069 
L 450.594448 54.308531 
" clip-path="url(#p5492c60702)" style="fill: none; stroke: #000000; stroke-width: 1.5"/>
    <path d="M 530.018757 469.933525 
L 530.018757 468.366481 
" clip-path="url(#p5492c60702)" style="fill: none; stroke: #000000; stroke-width: 1.5"/>
    <path d="M 609.443067 273.793484 
L 609.443067 244.84833 
" clip-path="url(#p5492c60702)" style="fill: none; stroke: #000000; stroke-width: 1.5"/>
    <path d="M 688.867377 458.039654 
L 688.867377 455.912369 
" clip-path="url(#p5492c60702)" style="fill: none; stroke: #000000; stroke-width: 1.5"/>
   </g>
   <g id="line2d_27">
    <g clip-path="url(#p5492c60702)">
     <use xlink:href="#mff69f2d43f" x="132.897209" y="243.772292" style="stroke: #000000"/>
     <use xlink:href="#mff69f2d43f" x="212.321519" y="401.099658" style="stroke: #000000"/>
     <use xlink:href="#mff69f2d43f" x="291.745828" y="464.082949" style="stroke: #000000"/>
     <use xlink:href="#mff69f2d43f" x="371.170138" y="309.549874" style="stroke: #000000"/>
     <use xlink:href="#mff69f2d43f" x="450.594448" y="111.171069" style="stroke: #000000"/>
     <use xlink:href="#mff69f2d43f" x="530.018757" y="469.933525" style="stroke: #000000"/>
     <use xlink:href="#mff69f2d43f" x="609.443067" y="273.793484" style="stroke: #000000"/>
     <use xlink:href="#mff69f2d43f" x="688.867377" y="458.039654" style="stroke: #000000"/>
    </g>
   </g>
   <g id="line2d_28">
    <g clip-path="url(#p5492c60702)">
     <use xlink:href="#mff69f2d43f" x="132.897209" y="196.47907" style="stroke: #000000"/>
     <use xlink:href="#mff69f2d43f" x="212.321519" y="384.545316" style="stroke: #000000"/>
     <use xlink:href="#mff69f2d43f" x="291.745828" y="457.44971" style="stroke: #000000"/>
     <use xlink:href="#mff69f2d43f" x="371.170138" y="268.549145" style="stroke: #000000"/>
     <use xlink:href="#mff69f2d43f" x="450.594448" y="54.308531" style="stroke: #000000"/>
     <use xlink:href="#mff69f2d43f" x="530.018757" y="468.366481" style="stroke: #000000"/>
     <use xlink:href="#mff69f2d43f" x="609.443067" y="244.84833" style="stroke: #000000"/>
     <use xlink:href="#mff69f2d43f" x="688.867377" y="455.912369" style="stroke: #000000"/>
    </g>
   </g>
   <g id="patch_35">
    <path d="M 64.91 487.679159 
L 64.91 32.64 
" style="fill: none; stroke: #000000; stroke-linejoin: miter; stroke-linecap: square"/>
   </g>
   <g id="patch_36">
    <path d="M 709.2 487.679159 
L 709.2 32.64 
" style="fill: none; stroke: #000000; stroke-linejoin: miter; stroke-linecap: square"/>
   </g>
   <g id="patch_37">
    <path d="M 64.91 487.679159 
L 709.2 487.679159 
" style="fill: none; stroke: #000000; stroke-linejoin: miter; stroke-linecap: square"/>
   </g>
   <g id="patch_38">
    <path d="M 64.91 32.64 
L 709.2 32.64 
" style="fill: none; stroke: #000000; stroke-linejoin: miter; stroke-linecap: square"/>
   </g>
   <g id="text_17">
    <!-- GlcCer Concentrations Across Conditions -->
    <g transform="translate(182.78 26.64)scale(0.2 -0.2)">
     <defs>
      <path id="DejaVuSans-73" d="M 2834 3397 
L 2834 2853 
Q 2591 2978 2328 3040 
Q 2066 3103 1784 3103 
Q 1356 3103 1142 2972 
Q 928 2841 928 2578 
Q 928 2378 1081 2264 
Q 1234 2150 1697 2047 
L 1894 2003 
Q 2506 1872 2764 1633 
Q 3022 1394 3022 966 
Q 3022 478 2636 193 
Q 2250 -91 1575 -91 
Q 1294 -91 989 -36 
Q 684 19 347 128 
L 347 722 
Q 666 556 975 473 
Q 1284 391 1588 391 
Q 1994 391 2212 530 
Q 2431 669 2431 922 
Q 2431 1156 2273 1281 
Q 2116 1406 1581 1522 
L 1381 1569 
Q 847 1681 609 1914 
Q 372 2147 372 2553 
Q 372 3047 722 3315 
Q 1072 3584 1716 3584 
Q 2034 3584 2315 3537 
Q 2597 3491 2834 3397 
z
" transform="scale(0.015625)"/>
      <path id="DejaVuSans-41" d="M 2188 4044 
L 1331 1722 
L 3047 1722 
L 2188 4044 
z
M 1831 4666 
L 2547 4666 
L 4325 0 
L 3669 0 
L 3244 1197 
L 1141 1197 
L 716 0 
L 50 0 
L 1831 4666 
z
" transform="scale(0.015625)"/>
     </defs>
     <use xlink:href="#DejaVuSans-47"/>
     <use xlink:href="#DejaVuSans-6c" x="77.490234"/>
     <use xlink:href="#DejaVuSans-63" x="105.273438"/>
     <use xlink:href="#DejaVuSans-43" x="160.253906"/>
     <use xlink:href="#DejaVuSans-65" x="230.078125"/>
     <use xlink:href="#DejaVuSans-72" x="291.601562"/>
     <use xlink:href="#DejaVuSans-20" x="332.714844"/>
     <use xlink:href="#DejaVuSans-43" x="364.501953"/>
     <use xlink:href="#DejaVuSans-6f" x="434.326172"/>
     <use xlink:href="#DejaVuSans-6e" x="495.507812"/>
     <use xlink:href="#DejaVuSans-63" x="558.886719"/>
     <use xlink:href="#DejaVuSans-65" x="613.867188"/>
     <use xlink:href="#DejaVuSans-6e" x="675.390625"/>
     <use xlink:href="#DejaVuSans-74" x="738.769531"/>
     <use xlink:href="#DejaVuSans-72" x="777.978516"/>
     <use xlink:href="#DejaVuSans-61" x="819.091797"/>
     <use xlink:href="#DejaVuSans-74" x="880.371094"/>
     <use xlink:href="#DejaVuSans-69" x="919.580078"/>
     <use xlink:href="#DejaVuSans-6f" x="947.363281"/>
     <use xlink:href="#DejaVuSans-6e" x="1008.544922"/>
     <use xlink:href="#DejaVuSans-73" x="1071.923828"/>
     <use xlink:href="#DejaVuSans-20" x="1124.023438"/>
     <use xlink:href="#DejaVuSans-41" x="1155.810547"/>
     <use xlink:href="#DejaVuSans-63" x="1222.46875"/>
     <use xlink:href="#DejaVuSans-72" x="1277.449219"/>
     <use xlink:href="#DejaVuSans-6f" x="1316.3125"/>
     <use xlink:href="#DejaVuSans-73" x="1377.494141"/>
     <use xlink:href="#DejaVuSans-73" x="1429.59375"/>
     <use xlink:href="#DejaVuSans-20" x="1481.693359"/>
     <use xlink:href="#DejaVuSans-43" x="1513.480469"/>
     <use xlink:href="#DejaVuSans-6f" x="1583.304688"/>
     <use xlink:href="#DejaVuSans-6e" x="1644.486328"/>
     <use xlink:href="#DejaVuSans-64" x="1707.865234"/>
     <use xlink:href="#DejaVuSans-69" x="1771.341797"/>
     <use xlink:href="#DejaVuSans-74" x="1799.125"/>
     <use xlink:href="#DejaVuSans-69" x="1838.333984"/>
     <use xlink:href="#DejaVuSans-6f" x="1866.117188"/>
     <use xlink:href="#DejaVuSans-6e" x="1927.298828"/>
     <use xlink:href="#DejaVuSans-73" x="1990.677734"/>
    </g>
   </g>
   <g id="legend_1">
    <g id="patch_39">
     <path d="M 553.753125 149.886875 
L 698.7 149.886875 
Q 701.7 149.886875 701.7 146.886875 
L 701.7 43.14 
Q 701.7 40.14 698.7 40.14 
L 553.753125 40.14 
Q 550.753125 40.14 550.753125 43.14 
L 550.753125 146.886875 
Q 550.753125 149.886875 553.753125 149.886875 
z
" style="fill: #ffffff; opacity: 0.8; stroke: #cccccc; stroke-linejoin: miter"/>
    </g>
    <g id="text_18">
     <!-- Condition -->
     <g transform="translate(602.366406 53.738438)scale(0.1 -0.1)">
      <use xlink:href="#DejaVuSans-43"/>
      <use xlink:href="#DejaVuSans-6f" x="69.824219"/>
      <use xlink:href="#DejaVuSans-6e" x="131.005859"/>
      <use xlink:href="#DejaVuSans-64" x="194.384766"/>
      <use xlink:href="#DejaVuSans-69" x="257.861328"/>
      <use xlink:href="#DejaVuSans-74" x="285.644531"/>
      <use xlink:href="#DejaVuSans-69" x="324.853516"/>
      <use xlink:href="#DejaVuSans-6f" x="352.636719"/>
      <use xlink:href="#DejaVuSans-6e" x="413.818359"/>
     </g>
    </g>
    <g id="patch_40">
     <path d="M 556.753125 74.715781 
L 586.753125 74.715781 
L 586.753125 64.215781 
L 556.753125 64.215781 
z
" style="fill: #1f77b4"/>
    </g>
    <g id="text_19">
     <!-- PCCL3Ctrl -->
     <g transform="translate(598.753125 74.715781)scale(0.15 -0.15)">
      <defs>
       <path id="DejaVuSans-50" d="M 1259 4147 
L 1259 2394 
L 2053 2394 
Q 2494 2394 2734 2622 
Q 2975 2850 2975 3272 
Q 2975 3691 2734 3919 
Q 2494 4147 2053 4147 
L 1259 4147 
z
M 628 4666 
L 2053 4666 
Q 2838 4666 3239 4311 
Q 3641 3956 3641 3272 
Q 3641 2581 3239 2228 
Q 2838 1875 2053 1875 
L 1259 1875 
L 1259 0 
L 628 0 
L 628 4666 
z
" transform="scale(0.015625)"/>
      </defs>
      <use xlink:href="#DejaVuSans-50"/>
      <use xlink:href="#DejaVuSans-43" x="60.302734"/>
      <use xlink:href="#DejaVuSans-43" x="130.126953"/>
      <use xlink:href="#DejaVuSans-4c" x="199.951172"/>
      <use xlink:href="#DejaVuSans-33" x="255.664062"/>
      <use xlink:href="#DejaVuSans-43" x="319.287109"/>
      <use xlink:href="#DejaVuSans-74" x="389.111328"/>
      <use xlink:href="#DejaVuSans-72" x="428.320312"/>
      <use xlink:href="#DejaVuSans-6c" x="469.433594"/>
     </g>
    </g>
    <g id="patch_41">
     <path d="M 556.753125 96.732969 
L 586.753125 96.732969 
L 586.753125 86.232969 
L 556.753125 86.232969 
z
" style="fill: #ff7f0e"/>
    </g>
    <g id="text_20">
     <!-- PCCL3TSH0 -->
     <g transform="translate(598.753125 96.732969)scale(0.15 -0.15)">
      <defs>
       <path id="DejaVuSans-53" d="M 3425 4513 
L 3425 3897 
Q 3066 4069 2747 4153 
Q 2428 4238 2131 4238 
Q 1616 4238 1336 4038 
Q 1056 3838 1056 3469 
Q 1056 3159 1242 3001 
Q 1428 2844 1947 2747 
L 2328 2669 
Q 3034 2534 3370 2195 
Q 3706 1856 3706 1288 
Q 3706 609 3251 259 
Q 2797 -91 1919 -91 
Q 1588 -91 1214 -16 
Q 841 59 441 206 
L 441 856 
Q 825 641 1194 531 
Q 1563 422 1919 422 
Q 2459 422 2753 634 
Q 3047 847 3047 1241 
Q 3047 1584 2836 1778 
Q 2625 1972 2144 2069 
L 1759 2144 
Q 1053 2284 737 2584 
Q 422 2884 422 3419 
Q 422 4038 858 4394 
Q 1294 4750 2059 4750 
Q 2388 4750 2728 4690 
Q 3069 4631 3425 4513 
z
" transform="scale(0.015625)"/>
       <path id="DejaVuSans-48" d="M 628 4666 
L 1259 4666 
L 1259 2753 
L 3553 2753 
L 3553 4666 
L 4184 4666 
L 4184 0 
L 3553 0 
L 3553 2222 
L 1259 2222 
L 1259 0 
L 628 0 
L 628 4666 
z
" transform="scale(0.015625)"/>
      </defs>
      <use xlink:href="#DejaVuSans-50"/>
      <use xlink:href="#DejaVuSans-43" x="60.302734"/>
      <use xlink:href="#DejaVuSans-43" x="130.126953"/>
      <use xlink:href="#DejaVuSans-4c" x="199.951172"/>
      <use xlink:href="#DejaVuSans-33" x="255.664062"/>
      <use xlink:href="#DejaVuSans-54" x="319.287109"/>
      <use xlink:href="#DejaVuSans-53" x="380.371094"/>
      <use xlink:href="#DejaVuSans-48" x="443.847656"/>
      <use xlink:href="#DejaVuSans-30" x="519.042969"/>
     </g>
    </g>
    <g id="patch_42">
     <path d="M 556.753125 118.750156 
L 586.753125 118.750156 
L 586.753125 108.250156 
L 556.753125 108.250156 
z
" style="fill: #2ca02c"/>
    </g>
    <g id="text_21">
     <!-- PCCL3TSH24 -->
     <g transform="translate(598.753125 118.750156)scale(0.15 -0.15)">
      <use xlink:href="#DejaVuSans-50"/>
      <use xlink:href="#DejaVuSans-43" x="60.302734"/>
      <use xlink:href="#DejaVuSans-43" x="130.126953"/>
      <use xlink:href="#DejaVuSans-4c" x="199.951172"/>
      <use xlink:href="#DejaVuSans-33" x="255.664062"/>
      <use xlink:href="#DejaVuSans-54" x="319.287109"/>
      <use xlink:href="#DejaVuSans-53" x="380.371094"/>
      <use xlink:href="#DejaVuSans-48" x="443.847656"/>
      <use xlink:href="#DejaVuSans-32" x="519.042969"/>
      <use xlink:href="#DejaVuSans-34" x="582.666016"/>
     </g>
    </g>
    <g id="patch_43">
     <path d="M 556.753125 140.767344 
L 586.753125 140.767344 
L 586.753125 130.267344 
L 556.753125 130.267344 
z
" style="fill: #d62728"/>
    </g>
    <g id="text_22">
     <!-- PCCL3TSH48 -->
     <g transform="translate(598.753125 140.767344)scale(0.15 -0.15)">
      <use xlink:href="#DejaVuSans-50"/>
      <use xlink:href="#DejaVuSans-43" x="60.302734"/>
      <use xlink:href="#DejaVuSans-43" x="130.126953"/>
      <use xlink:href="#DejaVuSans-4c" x="199.951172"/>
      <use xlink:href="#DejaVuSans-33" x="255.664062"/>
      <use xlink:href="#DejaVuSans-54" x="319.287109"/>
      <use xlink:href="#DejaVuSans-53" x="380.371094"/>
      <use xlink:href="#DejaVuSans-48" x="443.847656"/>
      <use xlink:href="#DejaVuSans-34" x="519.042969"/>
      <use xlink:href="#DejaVuSans-38" x="582.666016"/>
     </g>
    </g>
   </g>
  </g>
 </g>
 <defs>
  <clipPath id="p5492c60702">
   <rect x="64.91" y="32.64" width="644.29" height="455.039159"/>
  </clipPath>
 </defs>
</svg>
